<mxfile host="app.diagrams.net" modified="2023-07-02T16:05:04.545Z" agent="Mozilla/5.0 (Macintosh; Intel Mac OS X 10_15_7) AppleWebKit/537.36 (KHTML, like Gecko) Chrome/114.0.0.0 Safari/537.36" version="21.5.2" etag="hIxP2O2eOxhaEjA2WMQI" type="github">
  <diagram name="Page-1" id="w-pJ85vU4IMyG0JRHVQ0">
    <mxGraphModel>
      <root>
        <mxCell id="0" />
        <mxCell id="1" parent="0" />
      </root>
    </mxGraphModel>
  </diagram>
</mxfile>
